<?xml version="1.0" standalone="no"?>
<!DOCTYPE svg PUBLIC "-//W3C//DTD SVG 20010904//EN"
 "http://www.w3.org/TR/2001/REC-SVG-20010904/DTD/svg10.dtd">
<svg version="1.0" xmlns="http://www.w3.org/2000/svg"
 width="500.000000pt" height="500.000000pt" viewBox="0 0 500.000000 500.000000"
 preserveAspectRatio="xMidYMid meet">

<g transform="translate(0.000000,500.000000) scale(0.100000,-0.100000)"
fill="#000000" stroke="none">
<path d="M1300 2941 c-44 -9 -90 -33 -113 -59 -18 -19 -21 -19 -55 -5 -81 34
-231 -13 -331 -103 -28 -26 -64 -74 -90 -123 -24 -44 -48 -78 -52 -75 -5 3 -9
-6 -9 -20 0 -15 69 -130 185 -305 l184 -280 61 64 c47 48 84 75 153 110 153
77 305 96 315 40 11 -61 142 -157 142 -104 0 4 -20 19 -46 34 -27 16 -51 40
-62 61 -16 35 -16 36 8 54 14 11 50 29 80 41 74 30 238 38 293 16 44 -19 56
-7 31 31 -9 15 -107 151 -217 302 -111 151 -201 276 -202 278 -1 1 -27 11 -57
22 -63 22 -167 32 -218 21z m165 -37 c33 -8 69 -21 80 -28 11 -8 97 -119 191
-249 l172 -234 -59 30 c-96 49 -192 39 -276 -29 l-32 -26 -98 133 c-267 362
-254 342 -235 363 47 52 150 68 257 40z m-332 -58 c25 -10 72 -67 197 -237 90
-123 168 -230 174 -237 5 -8 -8 -3 -29 9 -108 64 -302 -8 -407 -152 -23 -33
-45 -59 -49 -59 -3 0 -70 97 -148 216 -161 246 -158 237 -90 325 88 110 256
175 352 135z"/>
<path d="M2270 2495 l0 -215 35 0 34 0 3 147 3 147 120 -147 c110 -135 122
-147 152 -147 l33 0 0 215 0 215 -40 0 -40 0 0 -146 0 -146 -117 145 c-107
133 -121 146 -150 146 l-33 1 0 -215z"/>
<path d="M3170 2646 c0 -30 -3 -35 -27 -38 -22 -2 -29 -9 -31 -30 -3 -23 1
-27 25 -30 l28 -3 5 -108 c5 -104 6 -110 33 -133 21 -18 40 -24 75 -24 63 0
79 11 65 42 -9 20 -17 24 -46 20 -48 -6 -59 17 -55 121 l3 82 43 3 c39 3 42 5
42 33 0 28 -2 29 -45 29 -45 0 -45 0 -45 35 0 33 -2 35 -35 35 -33 0 -35 -2
-35 -34z"/>
<path d="M4490 2581 l0 -50 -52 -3 c-49 -3 -53 -5 -56 -30 -3 -28 -2 -28 52
-28 l56 0 0 -55 0 -55 35 0 35 0 0 55 0 55 56 0 c54 0 55 0 52 28 -3 25 -7 27
-55 30 l-53 3 0 50 0 49 -35 0 -35 0 0 -49z"/>
<path d="M2815 2588 c-45 -26 -85 -93 -85 -143 1 -46 34 -109 71 -136 46 -33
163 -35 205 -3 54 40 69 70 69 139 0 68 -15 99 -68 139 -42 31 -141 33 -192 4z
m156 -64 c44 -40 40 -121 -8 -163 -35 -31 -97 -24 -130 14 -42 49 -25 142 31
166 29 12 85 3 107 -17z"/>
<path d="M3480 2592 c-117 -64 -115 -239 4 -296 61 -29 187 -14 211 24 4 7 -1
20 -12 31 -18 18 -21 19 -52 3 -46 -23 -109 -13 -138 21 -13 14 -23 30 -23 36
0 5 56 9 131 9 l132 0 -7 42 c-15 92 -65 140 -153 145 -44 3 -67 -1 -93 -15z
m145 -67 c46 -46 35 -55 -65 -55 -100 0 -111 9 -65 55 18 19 35 25 65 25 30 0
47 -6 65 -25z"/>
<path d="M3800 2445 l0 -165 40 0 40 0 0 104 c0 96 2 107 24 133 19 22 32 28
65 28 67 0 75 -17 79 -150 l4 -115 34 0 34 0 0 120 c0 135 -10 169 -60 195
-40 21 -108 19 -153 -4 -36 -18 -37 -18 -37 0 0 15 -7 19 -35 19 l-35 0 0
-165z"/>
</g>
</svg>
